<svg width="42" height="42" xmlns="http://www.w3.org/2000/svg" viewBox="0 0 25 25" id="ManageCloud">
  <path d="M23,13.5A4.507,4.507,0,0,1,18.5,18h-1a.5.5,0,0,1,0-1h1a3.5,3.5,0,0,0,0-7,3.3,3.3,0,0,0-1.1.18.5.5,0,0,1-.65-.32,5.47,5.47,0,0,0-4.76-3.84A5.53,5.53,0,0,0,7,11.5a.5.5,0,0,1-.5.5,2.5,2.5,0,0,0,0,5h1a.5.5,0,0,1,0,1h-2a3.5,3.5,0,0,1-.48-6.97A6.506,6.506,0,0,1,11.5,5c.16,0,.31.01.46.02A6.429,6.429,0,0,1,17.54,9.1,4.344,4.344,0,0,1,18.5,9,4.507,4.507,0,0,1,23,13.5Zm-6,2.67a.528.528,0,0,1-.19.4,2.61,2.61,0,0,1-.91.44l-.39.68a2.529,2.529,0,0,1,.07,1.01.525.525,0,0,1-.25.36l-1.16.67a.451.451,0,0,1-.25.07.433.433,0,0,1-.19-.04,2.359,2.359,0,0,1-.84-.56h-.78a2.359,2.359,0,0,1-.84.56.488.488,0,0,1-.44-.03l-1.16-.67a.525.525,0,0,1-.25-.36,2.529,2.529,0,0,1,.07-1.01l-.39-.68a2.61,2.61,0,0,1-.91-.44.528.528,0,0,1-.19-.4V14.83a.528.528,0,0,1,.19-.4,2.61,2.61,0,0,1,.91-.44l.39-.68a2.529,2.529,0,0,1-.07-1.01.525.525,0,0,1,.25-.36l1.16-.67a.486.486,0,0,1,.44-.03,2.359,2.359,0,0,1,.84.56h.78a2.359,2.359,0,0,1,.84-.56.486.486,0,0,1,.44.03l1.16.67a.525.525,0,0,1,.25.36,2.529,2.529,0,0,1-.07,1.01l.39.68a2.61,2.61,0,0,1,.91.44.528.528,0,0,1,.19.4Zm-3-.67A1.5,1.5,0,1,0,12.5,17,1.5,1.5,0,0,0,14,15.5Z" fill="url(#paint3_linear)" class="color000000 svgShape" stroke-width="0.25"></path>
<defs>
<linearGradient id="paint0_linear" x1="3.26667" y1="1" x2="37.8" y2="39.1334" gradientUnits="userSpaceOnUse">
<stop offset="0.259336" stop-color="#FFDB6E"/>
<stop offset="1" stop-color="#FFBC5E"/> 
</linearGradient>
<linearGradient id="paint1_linear" x1="29.602" y1="29.21" x2="36.1781" y2="36.4484" gradientUnits="userSpaceOnUse">
<stop offset="0.259336" stop-color="#FFDB6E"/>
<stop offset="1" stop-color="#FFBC5E"/>
</linearGradient>
<linearGradient id="paint2_linear" x1="29.602" y1="29.21" x2="36.1781" y2="36.4484" gradientUnits="userSpaceOnUse">
<stop offset="0.259336" stop-color="#FFDB6E"/>
<stop offset="1" stop-color="#FFBC5E"/>
</linearGradient>
<linearGradient id="paint3_linear" x1="3.26667" y1="1" x2="37.8" y2="39.1334" gradientUnits="userSpaceOnUse">
<stop offset="0.259336" stop-color="#FFDB6E"/>
<stop offset="1" stop-color="#FFBC5E"/>
</linearGradient>
<linearGradient id="paint4_linear" x1="3.26667" y1="1" x2="37.8" y2="39.1334" gradientUnits="userSpaceOnUse">
<stop offset="0.259336" stop-color="#FFDB6E"/>
<stop offset="1" stop-color="#FFBC5E"/>
</linearGradient>
</defs>
</svg>
